<?xml version="1.0" standalone="no"?>
<!DOCTYPE svg PUBLIC "-//W3C//DTD SVG 20010904//EN"
 "http://www.w3.org/TR/2001/REC-SVG-20010904/DTD/svg10.dtd">
<svg version="1.0" xmlns="http://www.w3.org/2000/svg"
 width="500.000000pt" height="500.000000pt" viewBox="0 0 500.000000 500.000000"
 preserveAspectRatio="xMidYMid meet">
<metadata>
Created by potrace 1.14, written by Peter Selinger 2001-2017
</metadata>
<g transform="translate(0.000000,500.000000) scale(0.100000,-0.100000)"
fill="#000000" stroke="none">
<path d="M2367 4434 c-1 -1 -45 -5 -97 -8 -52 -3 -106 -8 -120 -11 -14 -3 -44
-7 -67 -9 -24 -3 -46 -7 -50 -9 -5 -3 -30 -7 -58 -10 -27 -3 -111 -22 -185
-41 -350 -91 -588 -193 -825 -352 -105 -70 -139 -97 -230 -184 -238 -225 -404
-517 -459 -810 -18 -91 -18 -304 -1 -391 83 -428 304 -730 764 -1045 8 -6 -35
-115 -77 -198 -48 -93 -135 -217 -196 -281 -149 -153 -198 -229 -198 -304 2
-149 128 -243 282 -210 19 4 53 10 76 13 37 4 100 20 254 62 133 37 340 119
488 195 144 74 353 207 452 290 60 50 64 52 119 49 207 -10 539 -2 641 14 14
3 47 7 74 11 27 3 52 8 55 9 3 2 27 7 53 10 26 4 53 9 60 11 7 2 24 6 38 9 14
2 45 9 70 16 25 7 50 13 55 14 24 6 163 48 190 59 17 6 32 12 35 13 3 0 18 6
33 12 16 7 33 12 38 12 5 0 17 4 27 9 9 5 76 37 147 71 151 73 223 117 355
214 98 73 273 241 325 311 17 22 33 42 36 45 36 29 155 245 194 351 15 39 22
63 41 134 3 11 8 36 11 55 3 19 9 55 13 80 11 59 10 276 -1 337 -5 26 -12 62
-15 78 -3 17 -10 48 -16 70 -6 22 -12 45 -14 51 -6 33 -79 197 -115 259 -124
218 -344 442 -584 598 -274 176 -691 323 -1065 373 -19 2 -46 6 -59 9 -63 11
-484 28 -494 19z m393 -219 c64 -6 277 -40 375 -60 45 -9 261 -74 340 -102
171 -62 379 -174 517 -279 69 -53 209 -188 271 -262 92 -108 171 -252 216
-390 40 -120 44 -147 47 -307 3 -146 -6 -216 -46 -337 -19 -57 -96 -226 -110
-238 -3 -3 -18 -25 -34 -49 -41 -63 -39 -61 -166 -191 -166 -170 -298 -262
-535 -375 -71 -35 -141 -66 -155 -69 -14 -4 -34 -11 -45 -16 -79 -36 -415
-119 -545 -134 -165 -20 -380 -25 -655 -16 -53 2 -102 -2 -119 -9 -16 -7 -82
-51 -145 -100 -133 -100 -191 -139 -313 -209 -81 -45 -302 -150 -331 -156 -7
-2 -25 -9 -42 -15 -78 -33 -336 -104 -412 -115 -22 -3 -53 -8 -67 -12 -47 -11
-37 4 80 133 98 107 152 176 209 267 54 87 136 264 151 326 2 8 10 40 18 70 9
30 16 62 16 70 0 8 -41 42 -90 75 -49 33 -89 63 -90 68 0 4 -4 7 -10 7 -31 0
-281 218 -355 310 -86 106 -165 244 -208 365 -23 66 -55 207 -56 250 -4 189 3
251 41 373 91 296 350 609 648 786 45 26 233 120 300 149 108 46 360 120 520
152 47 9 96 19 110 22 14 3 41 6 60 8 79 5 215 18 218 20 6 5 323 -3 392 -10z"/>
<path d="M3227 3625 c-1 -2 -33 -5 -72 -9 -221 -20 -432 -143 -557 -324 -48
-70 -140 -272 -123 -272 2 0 -1 -15 -6 -32 -5 -18 -12 -75 -15 -128 -18 -297
126 -597 366 -760 59 -40 177 -93 235 -105 56 -12 200 -14 245 -4 61 14 147
54 192 89 20 17 41 30 46 30 6 0 9 -21 8 -47 -2 -27 -1 -54 2 -60 3 -10 49
-13 183 -13 98 0 179 3 180 8 4 30 3 852 -1 853 -3 1 -152 2 -332 3 -286 1
-328 -1 -328 -14 -1 -28 -1 -265 -1 -286 1 -19 6 -20 141 -19 152 1 150 2 90
-53 -116 -109 -276 -135 -396 -66 -135 77 -205 278 -172 489 12 78 66 191 114
239 135 134 352 100 465 -74 20 -31 36 -47 44 -42 15 9 208 155 215 162 4 4
81 64 99 76 2 2 -9 24 -24 50 -89 152 -272 269 -470 299 -44 7 -124 13 -128
10z"/>
<path d="M1058 3612 l-28 -3 0 -193 0 -192 218 1 c119 0 224 -1 232 -3 14 -3
16 -72 15 -605 0 -331 1 -608 3 -614 3 -10 57 -13 223 -13 202 0 219 1 220 18
0 9 1 285 1 612 1 327 4 597 9 600 4 3 108 5 232 4 l224 -1 1 193 0 194 -31 1
c-144 2 -1298 3 -1319 1z"/>
</g>
</svg>
